<?xml version="1.0" encoding="utf-8"?>
<!-- Generator: Adobe Illustrator 26.0.1, SVG Export Plug-In . SVG Version: 6.00 Build 0)  -->
<svg version="1.1" id="Calque_1" xmlns="http://www.w3.org/2000/svg" xmlns:xlink="http://www.w3.org/1999/xlink" x="0px" y="0px"
	 viewBox="0 0 89 89" style="enable-background:new 0 0 89 89;" xml:space="preserve">
<style type="text/css">
	.st0{fill:#FFFFFF;}
</style>
<path class="st0" d="M31.4,52.7L18.5,33.9l10.1-2.6l10.8,16.1c11.8-7,27.4-12.8,47.9-15.2c-1.9-6.4-5.1-12.4-9.6-17.3
	c-4.5-5-10-8.9-16.2-11.5c-6.2-2.6-12.9-3.7-19.5-3.3c-6.7,0.4-13.2,2.2-19,5.5c-5.9,3.2-10.9,7.7-14.8,13.2
	C4.4,24.2,1.8,30.4,0.6,37c-1.1,6.6-0.8,13.4,1.1,19.8c1.8,6.4,5.1,12.4,9.5,17.4C16.6,65.9,23.5,58.6,31.4,52.7z M48.5,15.5
	c2,0,3.9,0.6,5.5,1.7c1.6,1.1,2.9,2.6,3.6,4.4c0.7,1.8,0.9,3.8,0.6,5.7c-0.4,1.9-1.3,3.7-2.7,5.1c-1.4,1.4-3.1,2.3-5.1,2.7
	c-1.9,0.4-3.9,0.2-5.7-0.6c-1.8-0.7-3.4-2-4.4-3.6c-1.1-1.6-1.7-3.5-1.7-5.5c0-2.6,1-5.1,2.9-7C43.3,16.5,45.8,15.5,48.5,15.5
	L48.5,15.5z"/>
<path class="st0" d="M37,60.9c-7.3,5.4-13.4,12.3-17.8,20.2c5.2,3.6,11.1,6,17.4,7.2c6.2,1.1,12.6,0.9,18.8-0.6L37,60.9z"/>
<path class="st0" d="M45,55.6l19.3,28.7c7.4-3.7,13.7-9.4,18-16.4c4.4-7,6.7-15.2,6.7-23.5c0-0.8,0-1.7-0.1-2.6
	C77.1,43.3,60.1,46.9,45,55.6z"/>
</svg>
