<svg width="89" height="89" viewBox="0 0 89 89" fill="none" xmlns="http://www.w3.org/2000/svg">
<path d="M31.4336 52.7475L18.5299 33.9258L28.6175 31.345L39.4448 47.4011C51.2725 40.3734 66.8578 34.5731 87.3609 32.2025C85.5069 25.7767 82.23 19.8508 77.7734 14.8642C73.3168 9.87766 67.7947 5.95835 61.6168 3.39701C55.4389 0.835661 48.7636 -0.302006 42.0861 0.0683854C35.4085 0.438777 28.8999 2.30772 23.0431 5.53661C17.1864 8.76549 12.1317 13.2715 8.25388 18.7203C4.37611 24.1692 1.7748 30.4212 0.642834 37.0125C-0.48913 43.6039 -0.122719 50.3655 1.71497 56.7959C3.55266 63.2264 6.81444 69.1606 11.2584 74.1584C16.6398 65.8653 23.4745 58.6119 31.4336 52.7475ZM48.4732 15.4571C50.4318 15.4571 52.3463 16.0379 53.9748 17.126C55.6032 18.2141 56.8725 19.7607 57.622 21.5701C58.3716 23.3796 58.5676 25.3707 58.1855 27.2916C57.8034 29.2126 56.8603 30.977 55.4754 32.3619C54.0905 33.7469 52.326 34.69 50.405 35.0721C48.4841 35.4542 46.493 35.2581 44.6836 34.5086C42.8741 33.7591 41.3276 32.4898 40.2395 30.8613C39.1514 29.2329 38.5705 27.3183 38.5705 25.3597C38.5705 22.7377 39.6104 20.2228 41.462 18.3664C43.3137 16.51 45.826 15.4637 48.448 15.4571H48.4732Z" fill="#FC9254"/>
<path d="M36.9732 60.868C29.6694 66.2753 23.5905 73.1648 19.1351 81.0853C24.349 84.6823 30.2701 87.1263 36.5033 88.2541C42.7365 89.3818 49.1384 89.1675 55.2822 87.6254L36.9732 60.868Z" fill="#FC9254"/>
<path d="M44.9677 55.5974L64.3022 84.2881C71.7228 80.5939 77.9657 74.9028 82.3288 67.8547C86.6919 60.8066 89.0022 52.681 89 44.3917C89 43.5511 89 42.6432 88.916 41.7858C77.1135 43.3157 60.1243 46.8632 44.9677 55.5974Z" fill="#FC9254"/>
</svg>
